<svg xmlns="http://www.w3.org/2000/svg" width="48" height="48" viewBox="0 0 48 48">
  <path d="M0,0 H24 V48 H0 Z" fill="#111111"/>
  <path d="M24,0 H48 V48 H24 Z" fill="#EEEEEE"/>
  <!-- Reshiram wing right (white side) -->
  <path d="M28,8 Q36,6 42,12 Q46,18 42,26 Q38,30 32,28 Q26,24 28,16 Z" fill="#CCCCCC" stroke="#AAAAAA" stroke-width="0.8"/>
  <path d="M30,10 Q36,9 40,14 Q43,19 40,24 Q37,27 32,25 Q28,22 30,16 Z" fill="#FFFFFF" opacity="0.6"/>
  <!-- Zekrom wing left (black side) -->
  <path d="M20,8 Q12,6 6,12 Q2,18 6,26 Q10,30 16,28 Q22,24 20,16 Z" fill="#333333" stroke="#555555" stroke-width="0.8"/>
  <path d="M18,10 Q12,9 8,14 Q5,19 8,24 Q11,27 16,25 Q20,22 18,16 Z" fill="#444444" opacity="0.6"/>
  <!-- Yin-yang divider -->
  <rect x="23" y="0" width="2" height="48" fill="#888888" opacity="0.5"/>
  <!-- Pokeball bottom -->
  <rect x="0" y="34" width="48" height="4" fill="#666666"/>
  <circle cx="24" cy="36" r="5" fill="#666666"/>
  <circle cx="24" cy="36" r="3" fill="#CCCCCC"/>
</svg>
